HIERARCHY
ROOT RootJoint
{
    OFFSET   0.000000   0.000000   0.000000
    CHANNELS 6 Xposition Yposition Zposition Xrotation Yrotation Zrotation
    JOINT pelvis_lowerback
    {
        OFFSET   0.000000   0.093605   0.000000
        CHANNELS 3 Xrotation Yrotation Zrotation
        JOINT lowerback_torso
        {
            OFFSET   0.000000   0.100000   0.000000
            CHANNELS 3 Xrotation Yrotation Zrotation
            JOINT torso_head
            {
                OFFSET   0.000000   0.282350   0.000000
                CHANNELS 3 Xrotation Yrotation Zrotation
                End Site
                {
                    OFFSET   0.000000   0.192650   0.000000
                }
            }
            JOINT rTorso_Clavicle
            {
                OFFSET  -0.001000   0.157500   0.000000
                CHANNELS 3 Xrotation Yrotation Zrotation
                JOINT rShoulder
                {
                    OFFSET  -0.117647   0.000000   0.000000
                    CHANNELS 3 Xrotation Yrotation Zrotation
                    JOINT rElbow
                    {
                        OFFSET  -0.245000   0.000000   0.000000
                        CHANNELS 3 Xrotation Yrotation Zrotation
                        JOINT rWrist
                        {
                            OFFSET  -0.240000   0.000000   0.000000
                            CHANNELS 3 Xrotation Yrotation Zrotation
                            End Site
                            {
                                OFFSET  -0.116353  -0.002500   0.000000
                            }
                        }
                    }
                }
            }
            JOINT lTorso_Clavicle
            {
                OFFSET   0.001000   0.157500   0.000000
                CHANNELS 3 Xrotation Yrotation Zrotation
                JOINT lShoulder
                {
                    OFFSET   0.117647   0.000000   0.000000
                    CHANNELS 3 Xrotation Yrotation Zrotation
                    JOINT lElbow
                    {
                        OFFSET   0.245000   0.000000   0.000000
                        CHANNELS 3 Xrotation Yrotation Zrotation
                        JOINT lWrist
                        {
                            OFFSET   0.240000   0.000000   0.000000
                            CHANNELS 3 Xrotation Yrotation Zrotation
                            End Site
                            {
                                OFFSET   0.116353  -0.002500   0.000000
                            }
                        }
                    }
                }
            }
        }
    }
    JOINT rHip
    {
        OFFSET  -0.100000  -0.051395   0.000000
        CHANNELS 3 Xrotation Yrotation Zrotation
        JOINT rKnee
        {
            OFFSET   0.000000  -0.410000   0.000000
            CHANNELS 3 Xrotation Yrotation Zrotation
            JOINT rAnkle
            {
                OFFSET   0.000000  -0.390000   0.000000
                CHANNELS 3 Xrotation Yrotation Zrotation
                JOINT rToeJoint
                {
                    OFFSET   0.000000  -0.050000   0.130000
                    CHANNELS 3 Xrotation Yrotation Zrotation
                    End Site
                    {
                        OFFSET  -0.010000   0.002000   0.060000
                    }
                }
            }
        }
    }
    JOINT lHip
    {
        OFFSET   0.100000  -0.051395   0.000000
        CHANNELS 3 Xrotation Yrotation Zrotation
        JOINT lKnee
        {
            OFFSET   0.000000  -0.410000   0.000000
            CHANNELS 3 Xrotation Yrotation Zrotation
            JOINT lAnkle
            {
                OFFSET   0.000000  -0.390000   0.000000
                CHANNELS 3 Xrotation Yrotation Zrotation
                JOINT lToeJoint
                {
                    OFFSET   0.000000  -0.050000   0.130000
                    CHANNELS 3 Xrotation Yrotation Zrotation
                    End Site
                    {
                        OFFSET   0.010000   0.002000   0.060000
                    }
                }
            }
        }
    }
}
MOTION
Frames: 11
Frame Time:   0.008333
 -2.410490   0.911125   3.993216 -172.791678 -21.976783 -176.907651  10.786025   1.721443  -2.144695   0.631664   3.553738  -0.849422   1.207735   4.106942   1.553782   1.744344  -4.491007  10.380933   0.871938   8.069080  45.860834   0.000735  25.446677  -0.003876   2.653948   1.917098  -3.463299   2.739949   9.473071 -10.463223   1.298448   2.672664 -42.455939   0.000651 -21.871634   0.002035   0.801372  -3.610121   8.490848 -12.003675  -0.192890 -10.139565  53.765687   0.013379   0.014613 -12.388671  -8.388633   0.437602  -1.915867   0.001981   0.006907   7.778749 -10.365489  -0.128042  12.277048   0.000092   0.000922 -13.851721  -6.681457   5.108524   0.290432   0.000061   0.000005
 -2.410316   0.911187   3.991871 -172.718453 -22.728570 -176.840646  10.904823   1.724474  -2.166164   0.588968   3.578604  -0.810940   1.224311   4.112336   1.570045   1.741368  -4.433317  10.395335   0.784843   8.132521  45.804133   0.000734  25.541779  -0.003738   2.659404   1.933287  -3.525458   2.729101   9.458832 -10.447635   1.234206   2.690617 -42.423750   0.000610 -21.805340   0.002026   0.799541  -3.558275   8.555719 -12.142160   0.358743  -9.972924  53.396770   0.008128   0.008463 -12.529580  -7.869587   0.633061  -1.832449   0.001723   0.006756   7.801220 -10.672558   0.036308  12.305858   0.000073   0.000853 -13.863779  -7.126067   4.899195   0.286509   0.000045   0.000004
 -2.410064   0.911239   3.990548 -172.668088 -23.493364 -176.764238  11.020280   1.728357  -2.202895   0.540545   3.598411  -0.781483   1.236168   4.118392   1.583087   1.736853  -4.375848  10.408377   0.702148   8.193761  45.753248   0.000730  25.631123  -0.003605   2.664481   1.947222  -3.584425   2.708418   9.434577 -10.426149   1.166024   2.698821 -42.393083   0.000563 -21.747788   0.001963   0.798132  -3.519401   8.620335 -12.283152   0.930750  -9.831500  52.913955   0.003083   0.002428 -12.667685  -7.380805   0.815942  -1.753165   0.001528   0.006574   7.794878 -10.988768   0.188745  12.326331   0.000057   0.000765 -13.869791  -7.573132   4.702612   0.283022   0.000034   0.000003
 -2.409747   0.911275   3.989205 -172.618374 -24.249107 -176.679221  11.139591   1.736500  -2.246068   0.498956   3.619302  -0.760079   1.248020   4.124604   1.593923   1.728425  -4.316854  10.419128   0.621717   8.254355  45.705803   0.000721  25.715910  -0.003472   2.669923   1.965160  -3.639637   2.684065   9.406500 -10.404063   1.098455   2.702281 -42.363790   0.000513 -21.696331   0.001870   0.798192  -3.493848   8.683678 -12.436435   1.483629  -9.714090  52.422830  -0.000870  -0.002397 -12.798973  -6.924838   0.986909  -1.680206   0.001361   0.006299   7.788096 -11.305282   0.335335  12.341687   0.000044   0.000673 -13.877958  -8.012117   4.517309   0.280025   0.000025   0.000002
 -2.409371   0.911295   3.987815 -172.563997 -24.987067 -176.589585  11.260513   1.749233  -2.291196   0.465813   3.643084  -0.743967   1.260648   4.130751   1.603390   1.717045  -4.257580  10.428035   0.543908   8.313754  45.661299   0.000706  25.796290  -0.003331   2.675774   1.987964  -3.692088   2.660095   9.378879 -10.383340   1.034407   2.704377 -42.336466   0.000465 -21.648974   0.001765   0.798916  -3.474405   8.744527 -12.599541   2.008271  -9.612598  51.949503  -0.003731  -0.005976 -12.922812  -6.499499   1.146932  -1.613736   0.001213   0.005945   7.789639 -11.617662   0.481464  12.354223   0.000033   0.000587 -13.892576  -8.438184   4.340857   0.277468   0.000019   0.000002
 -2.408945   0.911298   3.986362 -172.504453 -25.703168 -176.497117  11.380286   1.766158  -2.336853   0.439864   3.669979  -0.731769   1.273701   4.136709   1.611870   1.703965  -4.199273  10.435649   0.469336   8.371273  45.619747   0.000686  25.872253  -0.003180   2.681887   2.014505  -3.742018   2.638528   9.353876 -10.364548   0.975243   2.706909 -42.311263   0.000420 -21.604545   0.001657   0.799573  -3.455770   8.802321 -12.769228   2.502858  -9.522316  51.500579  -0.005688  -0.008494 -13.039325  -6.102677   1.296753  -1.553431   0.001078   0.005541   7.801774 -11.923635   0.628798  12.364818   0.000024   0.000509 -13.915449  -8.849252   4.171816   0.275415   0.000015   0.000002
 -2.408474   0.911284   3.984842 -172.440503 -26.395259 -176.402293  11.496911   1.786670  -2.382707   0.419541   3.699643  -0.722953   1.286747   4.142420   1.619492   1.690092  -4.142735  10.442376   0.398389   8.426463  45.581132   0.000661  25.943836  -0.003019   2.688116   2.043442  -3.789420   2.620132   9.332330 -10.347831   0.921370   2.710647 -42.288157   0.000378 -21.562419   0.001553   0.799749  -3.435151   8.856936 -12.942689   2.967762  -9.440685  51.077272  -0.006935  -0.010163 -13.148812  -5.732427   1.437014  -1.498786   0.000955   0.005110   7.824524 -12.221804   0.777207  12.373814   0.000017   0.000440 -13.947173  -9.244401   4.009087   0.273910   0.000011   0.000001
 -2.407945   0.911322   3.983283 -172.445554 -27.184540 -176.339926  11.548301   1.807468  -2.414329   0.384775   3.703272  -0.704776   1.294833   4.200193   1.602312   1.701215  -4.121493  10.476551   0.364925   8.450739  45.516645   0.000577  25.971762  -0.002609   2.680961   2.105013  -3.858008   2.596101   9.279102 -10.337299   0.826026   2.683663 -42.272936   0.000367 -21.495495   0.001632   0.782840  -3.384560   8.897405 -12.913824   3.840118  -9.281923  50.070272  -0.014106  -0.019981 -13.186084  -4.901501   1.692359  -1.462607   0.000853   0.004842   7.756326 -12.595481   0.964508  12.386863   0.000007   0.000402 -13.952740  -9.743245   3.742514   0.253547  -0.000010   0.000017
 -2.407385   0.911332   3.981733 -172.472240 -28.028528 -176.261448  11.593093   1.815973  -2.454463   0.343227   3.689662  -0.694076   1.298664   4.257499   1.583273   1.723640  -4.111741  10.508524   0.343650   8.464185  45.456576   0.000499  25.991922  -0.002231   2.671959   2.135531  -3.921886   2.559384   9.213611 -10.325404   0.726214   2.646075 -42.261565   0.000348 -21.438657   0.001644   0.767452  -3.350671   8.929553 -12.867298   4.734738  -9.178055  48.994146  -0.020647  -0.029284 -13.228277  -4.119835   1.929464  -1.419011   0.000809   0.004791   7.650113 -12.960516   1.127921  12.402759   0.000000   0.000391 -13.954570 -10.224703   3.480812   0.719062   0.000406  -0.000014
 -2.406775   0.911325   3.980154 -172.498940 -28.873422 -176.174811  11.643152   1.826538  -2.497557   0.306632   3.674566  -0.688152   1.302077   4.312059   1.564608   1.747252  -4.103390  10.539287   0.326114   8.474977  45.401010   0.000432  26.008922  -0.001908   2.662739   2.150269  -3.978382   2.518989   9.145968 -10.315442   0.628369   2.605649 -42.252408   0.000326 -21.388449   0.001611   0.754482  -3.333605   8.958230 -12.831491   5.596473  -9.111220  47.956252  -0.025094  -0.036121 -13.270923  -3.390379   2.149422  -1.377663   0.000771   0.004674   7.543730 -13.326811   1.284221  12.411976  -0.000003   0.000353 -13.960184 -10.701817   3.239393   0.606472   0.000248  -0.000009
 -2.406112   0.911303   3.978522 -172.520318 -29.698051 -176.086967  11.698121   1.841929  -2.539536   0.277361   3.663778  -0.684319   1.306206   4.363566   1.546853   1.768824  -4.093744  10.568883   0.309417   8.485819  45.349966   0.000377  26.024620  -0.001640   2.653934   2.160439  -4.028236   2.480179   9.081605 -10.307883   0.536208   2.566764 -42.245242   0.000303 -21.342338   0.001555   0.742765  -3.323526   8.983945 -12.810998   6.411721  -9.065374  46.978208  -0.027578  -0.040503 -13.312802  -2.709534   2.353973  -1.340035   0.000727   0.004470   7.448748 -13.687224   1.441798  12.415902  -0.000004   0.000299 -13.973209 -11.164739   3.010370   0.516411   0.000149  -0.000006
